<svg width="404" height="469" viewBox="0 0 404 469" fill="none" xmlns="http://www.w3.org/2000/svg">
<path d="M399.29 341.5C388.48 365.43 383.31 376.14 369.43 397.29C350.03 426.83 322.65 463.69 288.79 463.94C258.67 464.19 250.9 444.29 210.03 444.62C169.16 444.82 160.64 464.31 130.49 464C96.63 463.69 70.71 430.48 51.29 401C-2.99999 318.29 -8.72999 221.36 24.82 169.79C48.56 133.22 86.12 111.74 121.39 111.74C157.31 111.74 179.89 131.48 209.59 131.48C238.41 131.48 255.96 111.69 297.5 111.69C328.92 111.69 362.14 128.81 385.88 158.35C308.22 200.9 320.84 311.82 399.29 341.5ZM265.97 78.68C281.08 59.28 292.54 31.91 288.39 4C263.73 5.68 234.9 21.43 218.05 41.82C202.79 60.39 190.14 87.97 195.07 114.65C221.97 115.52 249.81 99.48 265.97 78.68Z" stroke="black" stroke-width="8" stroke-miterlimit="10" stroke-linecap="round" stroke-linejoin="round"/>
</svg>
