<?xml version="1.0" encoding="utf-8"?>
<!-- Generator: Adobe Illustrator 23.0.5, SVG Export Plug-In . SVG Version: 6.00 Build 0)  -->
<svg version="1.1" id="Layer_1" xmlns="http://www.w3.org/2000/svg" xmlns:xlink="http://www.w3.org/1999/xlink" x="0px" y="0px"
	 viewBox="0 0 1366 768" style="enable-background:new 0 0 1366 768;" xml:space="preserve">
<g>
	<g>
		<path d="M24.87,559.55c30.47-12.81,60.23-27.12,88.98-43.45c27.46-15.6,53.99-32.84,79.41-51.6
			c26.56-19.6,52.07-40.61,76.13-63.22c23.35-21.95,45.96-45.32,63.09-72.57c8.61-13.69,15.74-28.68,20.17-44.27
			c2.42-8.52,3.83-17.33,4.61-26.14c0.77-8.74,0.19-17.25-1.01-25.92c-1.15-8.29-3.76-16.09-7.45-23.6
			c-4.24-8.64-10.76-15.47-18.43-21.12c-7.71-5.68-17.31-8.1-26.71-8.85c-4.78-0.39-9.54,0.3-14.27,1.03
			c-3.17,0.49-6.28,1.29-9.29,2.4c-9.35,3.44-17.28,8.08-24.82,14.6c-6.43,5.56-11.75,12.75-16.03,20.05
			c-8.39,14.31-13.08,30.55-17.06,46.54c-8.72,34.98-16.21,70.25-23,105.65c-6.81,35.46-12.91,71.05-18.82,106.67
			c-5.97,36-11.82,72.02-17.72,108.04c-1.45,8.85-2.9,17.71-4.35,26.56c-0.87,5.33-0.86,10.19,1.97,15.03
			c2.37,4.04,7.01,7.9,11.65,8.96c4.99,1.14,10.59,0.89,15.03-1.97c4.05-2.61,8.08-6.73,8.96-11.65
			c3.33-18.56,6.65-37.12,9.98-55.69c2.92-16.3,5.56-32.7,9.68-48.75c2.2-8.56,4.86-17,8.26-25.17c-0.66,1.55-1.31,3.11-1.97,4.66
			c3.78-8.93,8.46-17.44,14.34-25.16c-1.02,1.32-2.03,2.63-3.05,3.95c4.7-6.08,10.15-11.51,16.21-16.24
			c-1.32,1.02-2.63,2.03-3.95,3.05c6.71-5.16,14.04-9.41,21.83-12.72c-1.55,0.66-3.11,1.31-4.66,1.97c8.19-3.43,16.77-5.78,25.57-7
			c-1.73,0.23-3.46,0.46-5.18,0.7c8.58-1.14,17.26-1.19,25.84-0.06c-1.73-0.23-3.46-0.46-5.18-0.7c7.4,1.02,14.67,2.89,21.57,5.75
			c-1.55-0.66-3.11-1.31-4.66-1.97c5.35,2.27,10.4,5.13,15.03,8.64c-1.32-1.02-2.63-2.03-3.95-3.05c3.54,2.74,6.77,5.82,9.55,9.34
			c-1.02-1.32-2.03-2.63-3.05-3.95c2.18,2.83,4.01,5.86,5.43,9.15c-0.66-1.55-1.31-3.11-1.97-4.66c1.14,2.77,1.93,5.61,2.37,8.57
			c-0.23-1.73-0.46-3.46-0.7-5.18c0.45,3.41,0.39,6.8-0.02,10.21c0.23-1.73,0.46-3.46,0.7-5.18c-1.02,7.35-3.6,14.3-6.21,21.21
			c-2.38,6.28-4.61,12.58-6.25,19.11c-3.39,13.53-5.15,27.82-4.55,41.78c0.33,7.78,1.33,15.62,2.96,23.24
			c1.59,7.48,4.21,14.48,7.2,21.51c2.39,5.61,5.29,10.97,8.82,15.96c4.4,6.22,9.18,12.24,15.17,17
			c7.75,6.15,16.24,11.51,26.06,13.66c4.54,0.99,9.45,1.72,14.12,1.28c6.84-0.64,12.3-2.12,18.48-5.22
			c4.21-2.12,7.74-7.22,8.96-11.65c1.29-4.67,0.71-10.88-1.97-15.03c-2.68-4.16-6.68-7.83-11.65-8.96
			c-5.3-1.21-10.15-0.49-15.03,1.97c-0.56,0.28-1.11,0.54-1.68,0.79c1.55-0.66,3.11-1.31,4.66-1.97c-2.06,0.84-4.16,1.4-6.36,1.7
			c1.73-0.23,3.46-0.46,5.18-0.7c-2.39,0.27-4.76,0.22-7.14-0.09c1.73,0.23,3.46,0.46,5.18,0.7c-3.07-0.46-6-1.33-8.87-2.51
			c1.55,0.66,3.11,1.31,4.66,1.97c-3.74-1.62-7.22-3.71-10.47-6.17c1.32,1.02,2.63,2.03,3.95,3.05c-4.07-3.16-7.59-6.83-10.75-10.89
			c1.02,1.32,2.03,2.63,3.05,3.95c-4.35-5.7-7.91-11.91-10.7-18.51c0.66,1.55,1.31,3.11,1.97,4.66c-3.33-8.01-5.48-16.42-6.64-25.01
			c0.23,1.73,0.46,3.46,0.7,5.18c-1.35-10.47-1.22-21.06,0.14-31.53c-0.23,1.73-0.46,3.46-0.7,5.18c0.87-6.43,2.17-12.79,3.95-19.03
			c1.91-6.73,4.53-13.19,6.92-19.75c3.1-8.51,5.4-17.44,5.51-26.55c0.11-9.29-2.38-18.23-6.62-26.44
			c-3.38-6.54-8.37-12.6-13.91-17.43c-5.69-4.95-11.92-9.38-18.74-12.63c-13.72-6.54-28.31-10.01-43.51-10.58
			c-13.37-0.5-27.25,1.49-39.96,5.67c-7.12,2.34-14.13,5.31-20.74,8.86c-6.54,3.52-12.47,7.85-18.28,12.47
			c-23.22,18.48-35.92,46.99-43.06,75.11c-3.57,14.08-5.99,28.42-8.55,42.7c-2.91,16.22-5.81,32.45-8.72,48.67
			c-0.74,4.12-1.48,8.25-2.22,12.37c12.54,3.46,25.07,6.91,37.61,10.37c8.28-50.58,16.43-101.18,24.93-151.72
			c8.4-50,17.35-99.93,28.25-149.45c3.02-13.72,6.19-27.41,9.55-41.06c2.92-11.91,5.9-23.85,10.62-35.2
			c-0.66,1.55-1.31,3.11-1.97,4.66c2.85-6.74,6.33-13.18,10.76-19.03c-1.02,1.32-2.03,2.63-3.05,3.95c3-3.87,6.34-7.36,10.21-10.37
			c-1.32,1.02-2.63,2.03-3.95,3.05c3.59-2.72,7.46-4.98,11.59-6.76c-1.55,0.66-3.11,1.31-4.66,1.97c3.91-1.63,7.95-2.78,12.14-3.38
			c-1.73,0.23-3.46,0.46-5.18,0.7c3.5-0.45,7.01-0.49,10.52-0.03c-1.73-0.23-3.46-0.46-5.18-0.7c2.89,0.42,5.68,1.17,8.38,2.29
			c-1.55-0.66-3.11-1.31-4.66-1.97c2.58,1.12,4.96,2.53,7.19,4.23c-1.32-1.02-2.63-2.03-3.95-3.05c2.36,1.88,4.44,4.01,6.29,6.39
			c-1.02-1.32-2.03-2.63-3.05-3.95c2.32,3.08,4.18,6.43,5.68,9.97c-0.66-1.55-1.31-3.11-1.97-4.66c2.13,5.18,3.47,10.61,4.22,16.16
			c-0.23-1.73-0.46-3.46-0.7-5.18c1.09,8.53,0.88,17.2-0.24,25.72c0.23-1.73,0.46-3.46,0.7-5.18c-1.5,10.85-4.6,21.36-8.83,31.45
			c0.66-1.55,1.31-3.11,1.97-4.66c-6.49,15.24-15.43,29.27-25.51,42.36c1.02-1.32,2.03-2.63,3.05-3.95
			c-11.47,14.81-24.42,28.36-37.84,41.4c-13.66,13.27-27.8,26.05-42.39,38.3c-8.31,6.98-16.76,13.78-25.35,20.41
			c1.32-1.02,2.63-2.03,3.95-3.05c-21.1,16.27-42.99,31.5-65.61,45.59c-22.51,14.02-45.72,26.92-69.52,38.62
			c-13.52,6.65-27.24,12.9-41.12,18.77c1.55-0.66,3.11-1.31,4.66-1.97c-0.44,0.19-0.89,0.37-1.33,0.56
			c-2.54,0.6-4.75,1.77-6.63,3.49c-2.12,1.37-3.8,3.2-5.02,5.47c-2.45,4.18-3.48,10.34-1.97,15.03c1.53,4.72,4.45,9.27,8.96,11.65
			C14.14,559.85,20.17,561.52,24.87,559.55L24.87,559.55z"/>
	</g>
</g>
<g>
	<g>
		<path d="M406.77,644.35c12.31-1.12,24.4-3.48,36.04-7.63c11.59-4.13,22.83-9.38,33.47-15.55c9.45-5.49,18.48-11.68,27.22-18.24
			c9.89-7.42,19.58-15.14,28.96-23.2c8.15-7,16.02-14.36,23.06-22.5c7.92-9.15,15.26-19.09,20.37-30.1
			c5.54-11.93,9.39-24.36,11.18-37.39c0.92-6.65,1.73-13.26,1.6-19.98c-0.13-6.58-0.93-13.28-2.46-19.69
			c-0.56-2.36-1.27-4.68-2.15-6.94c-1.45-3.74-2.99-7.52-5.01-11.01c-2.02-3.48-4.55-6.7-7.11-9.78c-1.41-1.7-2.97-3.27-4.65-4.7
			c-2.83-2.41-5.81-4.75-8.98-6.7c-2.6-1.61-5.36-2.81-8.17-4c-2.82-1.19-5.62-2.34-8.58-3.13c-3.73-1-7.54-1.44-11.37-1.94
			c-4.5-0.58-9.05-0.62-13.56-0.05c-6.2,0.79-12.14,1.68-17.95,4.05c-5.86,2.39-11.42,4.95-16.51,8.75
			c-5.16,3.85-10.04,7.83-14.22,12.75c-4.06,4.79-7.88,9.88-10.94,15.37c-3.14,5.63-5.7,11.67-7.74,17.77
			c-1.7,5.09-2.83,10.35-3.56,15.66c-1.05,7.62-1.76,15.13-1.47,22.82c0.52,13.47,2.91,27.02,6.62,39.97
			c3.25,11.33,7.62,22.45,12.96,32.95c5.3,10.44,12.04,20.17,19.77,28.97c3.3,3.76,6.88,7.28,10.71,10.49
			c5.06,4.24,10.37,8.28,16.1,11.56c5.62,3.22,11.65,5.81,17.74,7.99c4.69,1.68,9.55,2.94,14.47,3.72c6.48,1.03,13,1.83,19.56,1.56
			c6.46-0.26,13.04-1.14,19.29-2.81c6.09-1.63,12.07-4.12,17.6-7.12c2.27-1.23,4.1-2.9,5.47-5.02c1.72-1.88,2.89-4.09,3.49-6.63
			c0.81-2.59,0.93-5.18,0.35-7.78c-0.12-2.6-0.89-5.01-2.31-7.25c-2.68-4.16-6.68-7.83-11.65-8.96c-5.21-1.19-10.27-0.61-15.03,1.97
			c-1.69,0.92-3.42,1.75-5.19,2.51c1.55-0.66,3.11-1.31,4.66-1.97c-5.05,2.11-10.35,3.51-15.77,4.25c1.73-0.23,3.46-0.46,5.18-0.7
			c-6.23,0.81-12.52,0.74-18.74-0.09c1.73,0.23,3.46,0.46,5.18,0.7c-7.07-0.97-13.97-2.9-20.55-5.68c1.55,0.66,3.11,1.31,4.66,1.97
			c-6.46-2.76-12.53-6.31-18.1-10.6c1.32,1.02,2.63,2.03,3.95,3.05c-6.67-5.18-12.59-11.25-17.77-17.91
			c1.02,1.32,2.03,2.63,3.05,3.95c-6.9-8.95-12.42-18.88-16.82-29.28c0.66,1.55,1.31,3.11,1.97,4.66
			c-5.57-13.25-9.52-27.3-11.48-41.54c0.23,1.73,0.46,3.46,0.7,5.18c-1.32-9.87-1.58-19.86-0.3-29.74c-0.23,1.73-0.46,3.46-0.7,5.18
			c0.99-7.33,2.83-14.49,5.7-21.31c-0.66,1.55-1.31,3.11-1.97,4.66c2.51-5.9,5.72-11.48,9.64-16.57c-1.02,1.32-2.03,2.63-3.05,3.95
			c3.29-4.22,7.05-8.05,11.27-11.35c-1.32,1.02-2.63,2.03-3.95,3.05c3.82-2.95,7.97-5.44,12.41-7.33c-1.55,0.66-3.11,1.31-4.66,1.97
			c4.03-1.68,8.24-2.81,12.56-3.42c-1.73,0.23-3.46,0.46-5.18,0.7c4.68-0.63,9.4-0.64,14.08-0.02c-1.73-0.23-3.46-0.46-5.18-0.7
			c4.28,0.6,8.46,1.71,12.44,3.39c-1.55-0.66-3.11-1.31-4.66-1.97c3.4,1.46,6.6,3.31,9.53,5.58c-1.32-1.02-2.63-2.03-3.95-3.05
			c2.61,2.05,4.93,4.39,6.97,7.01c-1.02-1.32-2.03-2.63-3.05-3.95c2.25,2.95,4.09,6.15,5.56,9.56c-0.66-1.55-1.31-3.11-1.97-4.66
			c1.95,4.62,3.17,9.49,3.85,14.45c-0.23-1.73-0.46-3.46-0.7-5.18c1.02,7.71,0.76,15.51-0.27,23.21c0.23-1.73,0.46-3.46,0.7-5.18
			c-1.4,10.23-3.95,20.37-7.96,29.9c0.66-1.55,1.31-3.11,1.97-4.66c-3.56,8.33-8.32,16.05-13.85,23.21
			c1.02-1.32,2.03-2.63,3.05-3.95c-10.55,13.56-23.55,24.95-36.78,35.8c-3.83,3.14-7.7,6.23-11.61,9.26
			c1.32-1.02,2.63-2.03,3.95-3.05c-12.67,9.78-25.91,18.91-40.14,26.28c-3.97,2.06-8.02,3.97-12.14,5.72
			c1.55-0.66,3.11-1.31,4.66-1.97c-10.89,4.6-22.28,7.97-34.01,9.56c1.73-0.23,3.46-0.46,5.18-0.7c-1.67,0.22-3.34,0.41-5.01,0.56
			c-2.68-0.1-5.19,0.46-7.51,1.68c-2.42,0.79-4.51,2.13-6.28,4.03c-1.9,1.77-3.25,3.86-4.03,6.28c-1.22,2.32-1.78,4.83-1.68,7.51
			c0.23,5.04,1.88,10.27,5.71,13.79C396.59,641.96,401.68,644.82,406.77,644.35L406.77,644.35z"/>
	</g>
</g>
<g>
	<g>
		<path d="M597.11,629.25c29.9-12.77,57.31-30.34,82.35-51.03c25.06-20.71,46.88-45.06,65.6-71.61
			c20.19-28.63,35.84-60.3,47.58-93.28c12.15-34.14,19.33-69.89,22.54-105.95c1.53-17.27,2.56-35,1.17-52.31
			c-0.88-11.03-2.81-21.48-7.11-31.67c-3.68-8.72-9.03-16.98-16.29-23.17c-3.78-3.22-7.84-6.41-12.38-8.51
			c-2.81-1.3-5.77-2.63-8.76-3.54c-3.26-1-6.69-1.35-10.06-1.75c-11.14-1.31-22.71,2.6-32.39,7.8
			c-16.11,8.65-29.23,22.4-39.37,37.42c-20.87,30.91-26.81,68.83-29.04,105.29c-1.16,19.04-1.65,38.12-2.37,57.18
			c-0.74,19.43-1.48,38.85-2.21,58.28c-0.68,18.16-1.26,36.39,0.26,54.52c0.87,10.45,2.26,20.94,4.58,31.16
			c2.16,9.51,5.35,18.52,9.23,27.46c6.27,14.44,15.76,27.94,27.08,38.85c12.13,11.7,26.98,21.04,43.32,25.52
			c7.95,2.18,16.44,3.26,24.69,3.01c5.09-0.15,10.15-2.07,13.79-5.71c3.38-3.38,5.93-8.93,5.71-13.79
			c-0.23-5.04-1.88-10.27-5.71-13.79c-3.75-3.44-8.56-5.87-13.79-5.71c-3.7,0.11-7.39-0.08-11.06-0.57c1.73,0.23,3.46,0.46,5.18,0.7
			c-5.9-0.84-11.61-2.46-17.11-4.74c1.55,0.66,3.11,1.31,4.66,1.97c-6.62-2.81-12.77-6.52-18.45-10.91
			c1.32,1.02,2.63,2.03,3.95,3.05c-6.58-5.15-12.43-11.14-17.57-17.73c1.02,1.32,2.03,2.63,3.05,3.95
			c-5.89-7.64-10.76-15.99-14.52-24.86c0.66,1.55,1.31,3.11,1.97,4.66c-4.95-11.86-7.84-24.5-9.55-37.21
			c0.23,1.73,0.46,3.46,0.7,5.18c-3.43-26.06-1.87-52.45-0.87-78.63c1.05-27.75,2.06-55.51,3.16-83.27
			c0.6-14.95,1.38-29.9,3.33-44.74c-0.23,1.73-0.46,3.46-0.7,5.18c2.17-16.11,5.76-32.04,12.04-47.07
			c-0.66,1.55-1.31,3.11-1.97,4.66c4.23-10,9.56-19.5,16.19-28.11c-1.02,1.32-2.03,2.63-3.05,3.95c5.06-6.48,10.81-12.37,17.3-17.42
			c-1.32,1.02-2.63,2.03-3.95,3.05c4.84-3.71,10-7,15.62-9.39c-1.55,0.66-3.11,1.31-4.66,1.97c3.28-1.34,6.64-2.33,10.16-2.81
			c-1.73,0.23-3.46,0.46-5.18,0.7c2.63-0.31,5.24-0.32,7.87,0.02c-1.73-0.23-3.46-0.46-5.18-0.7c2.73,0.41,5.34,1.16,7.88,2.23
			c-1.55-0.66-3.11-1.31-4.66-1.97c2.72,1.2,5.24,2.72,7.61,4.51c-1.32-1.02-2.63-2.03-3.95-3.05c3.02,2.35,5.68,5.07,8.03,8.1
			c-1.02-1.32-2.03-2.63-3.05-3.95c2.36,3.14,4.3,6.51,5.86,10.11c-0.66-1.55-1.31-3.11-1.97-4.66c2.46,5.86,3.93,12.02,4.81,18.3
			c-0.23-1.73-0.46-3.46-0.7-5.18c1.67,12.77,1.28,25.84,0.73,38.67c-0.55,12.77-1.68,25.51-3.36,38.18
			c0.23-1.73,0.46-3.46,0.7-5.18c-3.71,27.46-10.08,54.56-19.28,80.71c-2.63,7.49-5.5,14.9-8.59,22.21
			c0.66-1.55,1.31-3.11,1.97-4.66c-9.59,22.63-21.34,44.34-35.29,64.58c-3.67,5.32-7.49,10.54-11.43,15.66
			c1.02-1.32,2.03-2.63,3.05-3.95c-13.99,18.06-29.69,34.77-46.93,49.75c-4.87,4.23-9.87,8.32-14.97,12.27
			c1.32-1.02,2.63-2.03,3.95-3.05c-21.46,16.55-44.9,30.48-69.83,41.13c-4.17,1.78-7.82,7.51-8.96,11.65
			c-1.29,4.67-0.71,10.88,1.97,15.03c2.68,4.16,6.68,7.83,11.65,8.96c1.73,0.23,3.46,0.46,5.18,0.7
			C590.79,631.9,594.07,631.02,597.11,629.25L597.11,629.25z"/>
	</g>
</g>
<g>
	<g>
		<path d="M760.86,632.28c16.9-1.51,33.62-4.64,49.74-9.96c15.98-5.28,31.54-12.25,46.1-20.69c28.06-16.25,53.31-37.94,74.05-62.83
			c10.97-13.16,21.04-27.11,29.77-41.86c9.82-16.6,17.99-34.06,25.2-51.94c13.39-33.21,22.06-68.17,27.64-103.48
			c3.02-19.11,5.31-38.34,6.89-57.62c0.76-9.28,1.56-18.61,1.4-27.93c-0.19-10.37-1.34-21.33-5.17-31.04
			c-3.83-9.71-8.91-18.9-16.74-26.02c-3.69-3.35-7.85-6.61-12.38-8.78c-2.91-1.39-5.94-2.73-9.03-3.67
			c-3.38-1.03-6.95-1.42-10.44-1.83c-11.01-1.27-22.03,2.09-31.83,6.82c-3.55,1.71-6.91,3.81-10.07,6.17
			c-4.53,3.38-8.93,6.87-12.88,10.92c-25.64,26.38-37.85,62.9-45.48,98.09c-4.39,20.21-7.77,40.64-10.26,61.17
			c-2.37,19.53-3.58,39.22-3.05,58.9c0.53,19.77,2.79,39.62,7,58.95c4.02,18.45,10.21,36.28,18.13,53.41
			c7.81,16.9,17.95,32.73,30.04,46.89c12.28,14.39,27.86,26.24,45.83,32.46c4.3,1.49,8.65,2.27,13.15,2.87
			c4.66,0.63,9.18,0.96,13.87,0.49c5.3-0.53,9.9-1.82,13.79-5.71c3.38-3.38,5.93-8.93,5.71-13.79c-0.23-5.04-1.88-10.27-5.71-13.79
			c-3.59-3.3-8.73-6.22-13.79-5.71c-3.77,0.38-7.52,0.32-11.28-0.14c1.73,0.23,3.46,0.46,5.18,0.7c-4.96-0.68-9.74-2.06-14.35-3.99
			c1.55,0.66,3.11,1.31,4.66,1.97c-6.1-2.62-11.74-6.1-16.99-10.14c1.32,1.02,2.63,2.03,3.95,3.05
			c-7.94-6.19-14.84-13.52-20.99-21.47c1.02,1.32,2.03,2.63,3.05,3.95c-10.27-13.4-18.64-28.13-25.25-43.66
			c0.66,1.55,1.31,3.11,1.97,4.66c-8.58-20.34-14.11-41.83-17.09-63.69c0.23,1.73,0.46,3.46,0.7,5.18c-4.36-32.56-3-65.6,1.34-98.08
			c-0.23,1.73-0.46,3.46-0.7,5.18c1.92-14.2,4.39-28.31,7.25-42.35c2.46-12.07,5.26-24.08,8.92-35.85
			c2.07-6.66,4.42-13.23,7.12-19.66c-0.66,1.55-1.31,3.11-1.97,4.66c4.87-11.49,10.9-22.46,18.53-32.36
			c-1.02,1.32-2.03,2.63-3.05,3.95c4.5-5.77,9.46-11.1,15.23-15.62c-1.32,1.02-2.63,2.03-3.95,3.05c4.17-3.21,8.64-5.96,13.48-8.04
			c-1.55,0.66-3.11,1.31-4.66,1.97c3.52-1.46,7.15-2.52,10.93-3.05c-1.73,0.23-3.46,0.46-5.18,0.7c2.91-0.36,5.8-0.39,8.71-0.05
			c-1.73-0.23-3.46-0.46-5.18-0.7c2.87,0.39,5.63,1.13,8.3,2.23c-1.55-0.66-3.11-1.31-4.66-1.97c2.7,1.17,5.19,2.66,7.52,4.45
			c-1.32-1.02-2.63-2.03-3.95-3.05c2.64,2.08,4.97,4.46,7.05,7.1c-1.02-1.32-2.03-2.63-3.05-3.95c2.57,3.34,4.67,6.96,6.35,10.82
			c-0.66-1.55-1.31-3.11-1.97-4.66c2.15,5.1,3.45,10.46,4.22,15.93c-0.23-1.73-0.46-3.46-0.7-5.18c1.71,13.01,0.49,26.22-0.58,39.24
			c-1.03,12.53-2.35,25.03-4.01,37.49c0.23-1.73,0.46-3.46,0.7-5.18c-4.46,33.14-11.37,66.03-22.14,97.72
			c-3.06,8.99-6.43,17.88-10.12,26.63c0.66-1.55,1.31-3.11,1.97-4.66c-10.73,25.3-24.22,49.44-41.03,71.22
			c1.02-1.32,2.03-2.63,3.05-3.95c-14.32,18.45-30.84,35.17-49.31,49.48c1.32-1.02,2.63-2.03,3.95-3.05
			c-16.18,12.47-33.8,23.03-52.61,31.02c1.55-0.66,3.11-1.31,4.66-1.97c-16.65,7.01-34.12,11.94-52.02,14.37
			c1.73-0.23,3.46-0.46,5.18-0.7c-2.87,0.38-5.74,0.7-8.62,0.95c-5.27,0.47-9.94,1.86-13.79,5.71c-3.38,3.38-5.93,8.93-5.71,13.79
			c0.23,5.04,1.88,10.27,5.71,13.79C750.69,629.89,755.77,632.73,760.86,632.28L760.86,632.28z"/>
	</g>
</g>
<g>
	<g>
		<path d="M976.17,623.58c23.94,1.28,47.66-4.18,69.28-14.27c10.76-5.02,20.49-11.66,29.67-19.16
			c10.64-8.69,18.77-19.96,21.47-33.64c1.51-7.63,2.08-15.45,2.86-23.18c0.64-6.36,1.32-12.72,2.17-19.06
			c-0.23,1.73-0.46,3.46-0.7,5.18c1.98-14.51,4.92-28.96,10.59-42.52c-0.66,1.55-1.31,3.11-1.97,4.66c3-7.05,6.7-13.7,11.37-19.79
			c-1.02,1.32-2.03,2.63-3.05,3.95c4.12-5.3,8.84-10.1,14.14-14.23c-1.32,1.02-2.63,2.03-3.95,3.05c4.5-3.46,9.35-6.38,14.57-8.62
			c-1.55,0.66-3.11,1.31-4.66,1.97c4.48-1.88,9.13-3.2,13.95-3.87c-1.73,0.23-3.46,0.46-5.18,0.7c3.78-0.48,7.57-0.55,11.36-0.18
			c0-13,0-26,0-39c-9.62-0.05-19.54,1.62-28.48,5.24c-5.09,2.06-10.09,4.24-14.77,7.13c-4.68,2.89-9.08,6.29-13.28,9.82
			c-15.25,12.81-25.91,30.1-33.42,48.33c-3.63,8.81-6.17,18.08-7.67,27.49c-1.06,6.67-1.92,13.42-2.08,20.18
			c-0.16,6.91,0.57,13.65,1.53,20.49c1.51,10.77,5.07,21.07,10.02,30.75c4.53,8.85,10.8,17.24,18.11,23.99
			c9.06,8.36,19.37,14.33,31.05,18.25c4.9,1.65,9.97,2.75,15.09,3.49c6.59,0.96,13.2,1.74,19.86,1.88
			c6.79,0.14,13.44-0.54,20.15-1.54c4.92-0.73,9.77-1.91,14.42-3.73c4.94-1.93,9.85-4.03,14.37-6.84c4.5-2.8,8.76-6.1,12.7-9.64
			c13.73-12.32,22.91-29.44,28.45-46.83c2.95-9.25,4.52-18.83,5.56-28.46c0.91-8.46,0.91-17.01,0.15-25.48
			c-0.98-10.9-2.72-21.88-6.38-32.23c-2.04-5.78-4.46-11.52-7.39-16.91c-3-5.53-6.74-10.59-10.73-15.44
			c-2.75-3.34-5.85-6.39-9.21-9.11c-4.52-3.65-9.15-7.16-14.3-9.87c-10.36-5.45-21.49-8.7-33.22-9.14
			c-5.77-0.21-11.67,0.57-17.28,1.84c6.32,10.86,12.65,21.73,18.97,32.59c0.27-0.24,0.55-0.47,0.84-0.69
			c-1.32,1.02-2.63,2.03-3.95,3.05c1.16-0.86,2.38-1.56,3.69-2.14c-1.55,0.66-3.11,1.31-4.66,1.97c1.67-0.68,3.37-1.12,5.16-1.38
			c-1.73,0.23-3.46,0.46-5.18,0.7c2.2-0.26,4.38-0.23,6.57,0.03c-1.73-0.23-3.46-0.46-5.18-0.7c2.78,0.39,5.45,1.13,8.04,2.2
			c-1.55-0.66-3.11-1.31-4.66-1.97c4.01,1.74,7.65,4.18,11.11,6.83c-1.32-1.02-2.63-2.03-3.95-3.05
			c6.24,4.84,12.1,10.11,18.51,14.75c4.96,3.58,10.26,6.67,15.81,9.24c6.8,3.15,13.8,5.95,21.06,7.85
			c7.39,1.94,15.06,3.06,22.67,3.65c6,0.47,12.04,0.38,18.01-0.28c7.4-0.82,14.75-1.96,21.89-4.11c12.24-3.7,24.19-9.37,34.5-16.97
			c6.35-4.68,12.44-9.64,17.8-15.44c5.38-5.82,10.28-12.23,14.42-18.99c2.61-4.26,3.28-10.25,1.97-15.03
			c-1.25-4.52-4.74-9.42-8.96-11.65c-4.53-2.39-10.01-3.59-15.03-1.97c-4.9,1.58-8.93,4.51-11.65,8.96
			c-1.77,2.89-3.68,5.68-5.74,8.37c1.02-1.32,2.03-2.63,3.05-3.95c-5.19,6.71-11.21,12.69-17.91,17.88
			c1.32-1.02,2.63-2.03,3.95-3.05c-6.74,5.15-14.07,9.43-21.87,12.75c1.55-0.66,3.11-1.31,4.66-1.97
			c-7.74,3.24-15.84,5.47-24.15,6.61c1.73-0.23,3.46-0.46,5.18-0.7c-8.57,1.11-17.22,1.06-25.79-0.08c1.73,0.23,3.46,0.46,5.18,0.7
			c-8.56-1.19-16.91-3.47-24.9-6.78c1.55,0.66,3.11,1.31,4.66,1.97c-7.59-3.2-14.74-7.31-21.29-12.31c1.32,1.02,2.63,2.03,3.95,3.05
			c-4.21-3.26-8.19-6.81-12.39-10.08c-3.15-2.45-6.27-4.95-9.67-7.05c-3.41-2.11-7.09-3.65-10.82-5.11
			c-2.17-0.85-4.42-1.44-6.72-1.81c-3.65-0.58-7.5-1.23-11.23-0.92c-3.64,0.3-7.46,0.7-10.92,1.99c-5.56,2.06-9.09,4.2-13.63,8.04
			c-1.02,1.32-2.03,2.63-3.05,3.95c-1.43,2.24-2.2,4.65-2.31,7.25c-0.56,4.16-0.03,8.8,2.31,12.43c1.82,2.82,4.18,5.18,7,7
			c4.33,2.79,10.17,3.07,15.03,1.97c1.45-0.33,2.91-0.59,4.38-0.79c-1.73,0.23-3.46,0.46-5.18,0.7c4.22-0.52,8.45-0.47,12.66,0.09
			c-1.73-0.23-3.46-0.46-5.18-0.7c4.78,0.69,9.42,2.01,13.88,3.88c-1.55-0.66-3.11-1.31-4.66-1.97c5.02,2.15,9.71,4.94,14.03,8.28
			c-1.32-1.02-2.63-2.03-3.95-3.05c4.15,3.26,7.89,6.98,11.15,11.13c-1.02-1.32-2.03-2.63-3.05-3.95
			c4.1,5.31,7.42,11.14,10.07,17.31c-0.66-1.55-1.31-3.11-1.97-4.66c3.58,8.52,5.81,17.49,7.06,26.64c-0.23-1.73-0.46-3.46-0.7-5.18
			c1.48,11.31,1.57,22.78,0.09,34.09c0.23-1.73,0.46-3.46,0.7-5.18c-1.36,10.08-3.93,19.98-7.87,29.36
			c0.66-1.55,1.31-3.11,1.97-4.66c-2.96,6.95-6.66,13.55-11.25,19.55c1.02-1.32,2.03-2.63,3.05-3.95
			c-3.61,4.65-7.71,8.87-12.35,12.49c1.32-1.02,2.63-2.03,3.95-3.05c-4.17,3.2-8.69,5.87-13.52,7.93c1.55-0.66,3.11-1.31,4.66-1.97
			c-5.29,2.2-10.82,3.59-16.48,4.39c1.73-0.23,3.46-0.46,5.18-0.7c-9.39,1.23-18.95,0.91-28.32-0.34c1.73,0.23,3.46,0.46,5.18,0.7
			c-6.98-0.98-13.83-2.62-20.36-5.32c1.55,0.66,3.11,1.31,4.66,1.97c-4.86-2.07-9.39-4.7-13.58-7.91c1.32,1.02,2.63,2.03,3.95,3.05
			c-4.56-3.56-8.6-7.68-12.13-12.25c1.02,1.32,2.03,2.63,3.05,3.95c-3.87-5.08-7.05-10.61-9.56-16.48c0.66,1.55,1.31,3.11,1.97,4.66
			c-2.87-6.83-4.72-13.99-5.72-21.33c0.23,1.73,0.46,3.46,0.7,5.18c-1.16-9.06-1-18.2,0.2-27.25c-0.23,1.73-0.46,3.46-0.7,5.18
			c1.45-10.52,4.18-20.89,8.27-30.7c-0.66,1.55-1.31,3.11-1.97,4.66c3.69-8.71,8.42-16.95,14.17-24.47
			c-1.02,1.32-2.03,2.63-3.05,3.95c4.81-6.22,10.29-11.9,16.49-16.75c-1.32,1.02-2.63,2.03-3.95,3.05
			c5.08-3.93,10.59-7.25,16.51-9.75c-1.55,0.66-3.11,1.31-4.66,1.97c4.94-2.04,10.08-3.47,15.37-4.22c-1.73,0.23-3.46,0.46-5.18,0.7
			c2.79-0.36,5.59-0.54,8.4-0.52c4.98,0.03,10.27-2.19,13.79-5.71c3.38-3.38,5.93-8.93,5.71-13.79c-0.23-5.04-1.88-10.27-5.71-13.79
			c-1.32-1.02-2.63-2.03-3.95-3.05c-3.04-1.76-6.32-2.65-9.84-2.66c-12.88-1.25-25.56,2.19-37.13,7.6
			c-4.48,2.1-8.66,4.74-12.59,7.74c-5.2,3.98-10.15,8.05-14.51,12.96c-4.3,4.85-8.31,10.09-11.69,15.62
			c-3.65,5.97-6.41,12.42-9.01,18.9c-4.4,10.96-7.05,22.53-8.89,34.16c-2.34,14.8-3.3,29.72-5.29,44.56
			c0.23-1.73,0.46-3.46,0.7-5.18c-0.61,4.34-1.52,8.61-3.21,12.67c0.66-1.55,1.31-3.11,1.97-4.66c-1.11,2.52-2.51,4.84-4.18,7.02
			c1.02-1.32,2.03-2.63,3.05-3.95c-3.48,4.4-7.76,8.05-12.17,11.49c1.32-1.02,2.63-2.03,3.95-3.05
			c-8.46,6.52-17.71,11.89-27.53,16.07c1.55-0.66,3.11-1.31,4.66-1.97c-10.41,4.37-21.34,7.36-32.53,8.86
			c1.73-0.23,3.46-0.46,5.18-0.7c-7.53,0.98-15.11,1.28-22.7,0.87c-4.83-0.26-10.44,2.36-13.79,5.71
			c-3.38,3.38-5.93,8.93-5.71,13.79c0.23,5.04,1.88,10.27,5.71,13.79C966.31,621.47,970.8,623.29,976.17,623.58L976.17,623.58z"/>
	</g>
</g>
<g>
	<g>
		<path d="M1319.13,621.38c5,0,10.25-2.18,13.79-5.71c1.9-1.77,3.25-3.86,4.03-6.28c1.22-2.32,1.78-4.83,1.68-7.51
			c-0.23-5.04-1.88-10.27-5.71-13.79c-3.82-3.5-8.51-5.71-13.79-5.71c-5,0-10.25,2.18-13.79,5.71c-1.9,1.77-3.25,3.86-4.03,6.28
			c-1.22,2.32-1.78,4.83-1.68,7.51c0.23,5.04,1.88,10.27,5.71,13.79C1309.16,619.17,1313.85,621.38,1319.13,621.38L1319.13,621.38z"
			/>
	</g>
</g>
</svg>
