<svg width="211" height="180" viewBox="0 0 211 180" fill="none" xmlns="http://www.w3.org/2000/svg">
<g id="Asset">
<path id="Arrow-asset" fill-rule="evenodd" clip-rule="evenodd" d="M104.547 1.46757C101.779 -0.489193 98.0786 -0.48919 95.3107 1.46758L14.397 58.6703C8.02575 63.1745 11.2125 73.2027 19.0152 73.2027H59.4289V164.203C59.4289 172.487 66.1446 179.203 74.4289 179.203H125.429C133.713 179.203 140.429 172.487 140.429 164.203V73.2027H180.843C188.645 73.2027 191.832 63.1745 185.461 58.6703L104.547 1.46757Z" fill="#20BF00"/>
<g id="Coins-asset">
<g id="Component 1">
<path id="Ellipse 3" d="M55 112C55 118.075 50.0751 123 44 123C37.9249 123 33 118.075 33 112C33 105.925 37.9249 101 44 101C50.0751 101 55 105.925 55 112Z" fill="#20BF00"/>
<path id="Vector 3" d="M47.4615 117L40.75 112C44.8923 112 47.4615 110.933 45.9231 108.435C44.9228 106.811 42.8462 107.007 39 107.007H49M39 109.143H49" stroke="white" stroke-width="1.25"/>
</g>
<g id="Component 2">
<path id="Ellipse 3_2" d="M22 125C22 131.075 17.0751 136 11 136C4.92487 136 0 131.075 0 125C0 118.925 4.92487 114 11 114C17.0751 114 22 118.925 22 125Z" fill="#20BF00"/>
<path id="Vector 3_2" d="M14.4615 130L7.75 125C11.8923 125 14.4615 123.933 12.9231 121.435C11.9228 119.811 9.84615 120.007 6 120.007H16M6 122.143H16" stroke="white" stroke-width="1.25"/>
</g>
<g id="Component 5">
<path id="Ellipse 3_3" d="M211 125C211 131.075 206.075 136 200 136C193.925 136 189 131.075 189 125C189 118.925 193.925 114 200 114C206.075 114 211 118.925 211 125Z" fill="#20BF00"/>
<path id="Vector 3_3" d="M203.462 130L196.75 125C200.892 125 203.462 123.933 201.923 121.435C200.923 119.811 198.846 120.007 195 120.007H205M195 122.143H205" stroke="white" stroke-width="1.25"/>
</g>
<g id="Component 4">
<path id="Ellipse 3_4" d="M177 97C177 103.075 172.075 108 166 108C159.925 108 155 103.075 155 97C155 90.9249 159.925 86 166 86C172.075 86 177 90.9249 177 97Z" fill="#20BF00"/>
<path id="Vector 3_4" d="M169.462 102L162.75 97C166.892 97 169.462 95.9331 167.923 93.435C166.923 91.8108 164.846 92.0075 161 92.0075H171M161 94.1429H171" stroke="white" stroke-width="1.25"/>
</g>
<g id="Component 3">
<path id="Ellipse 3_5" d="M44 154C44 160.075 39.0751 165 33 165C26.9249 165 22 160.075 22 154C22 147.925 26.9249 143 33 143C39.0751 143 44 147.925 44 154Z" fill="#20BF00"/>
<path id="Vector 3_5" d="M36.4615 159L29.75 154C33.8923 154 36.4615 152.933 34.9231 150.435C33.9228 148.811 31.8462 149.007 28 149.007H38M28 151.143H38" stroke="white" stroke-width="1.25"/>
</g>
<g id="Component 6">
<path id="Ellipse 3_6" d="M171 130C171 136.075 166.075 141 160 141C153.925 141 149 136.075 149 130C149 123.925 153.925 119 160 119C166.075 119 171 123.925 171 130Z" fill="#20BF00"/>
<path id="Vector 3_6" d="M163.462 135L156.75 130C160.892 130 163.462 128.933 161.923 126.435C160.923 124.811 158.846 125.007 155 125.007H165M155 127.143H165" stroke="white" stroke-width="1.25"/>
</g>
<g id="Component 7">
<path id="Ellipse 3_7" d="M194 159C194 165.075 189.075 170 183 170C176.925 170 172 165.075 172 159C172 152.925 176.925 148 183 148C189.075 148 194 152.925 194 159Z" fill="#20BF00"/>
<path id="Vector 3_7" d="M186.462 164L179.75 159C183.892 159 186.462 157.933 184.923 155.435C183.923 153.811 181.846 154.007 178 154.007H188M178 156.143H188" stroke="white" stroke-width="1.25"/>
</g>
</g>
</g>
</svg>
