<svg width="209" height="180" viewBox="0 0 209 180" fill="none" xmlns="http://www.w3.org/2000/svg">
<g id="Liab">
<g id="Coins-liab">
<g id="Component 6">
<path id="Ellipse 3" d="M60 15C60 21.0751 55.0751 26 49 26C42.9249 26 38 21.0751 38 15C38 8.92486 42.9249 4 49 4C55.0751 4 60 8.92486 60 15Z" fill="#D64242"/>
<path id="Vector 3" d="M52.4615 20L45.75 15C49.8923 15 52.4615 13.9331 50.9231 11.435C49.9228 9.81079 47.8462 10.0075 44 10.0075H54M44 12.1429H54" stroke="white" stroke-width="1.25"/>
</g>
<g id="Component 7">
<path id="Ellipse 3_2" d="M38 77C38 83.0751 33.0751 88 27 88C20.9249 88 16 83.0751 16 77C16 70.9249 20.9249 66 27 66C33.0751 66 38 70.9249 38 77Z" fill="#D64242"/>
<path id="Vector 3_2" d="M30.4615 82L23.75 77C27.8923 77 30.4615 75.9331 28.9231 73.435C27.9228 71.8108 25.8462 72.0075 22 72.0075H32M22 74.1429H32" stroke="white" stroke-width="1.25"/>
</g>
<g id="Component 4">
<path id="Ellipse 3_3" d="M22 37C22 43.0751 17.0751 48 11 48C4.92487 48 0 43.0751 0 37C0 30.9249 4.92487 26 11 26C17.0751 26 22 30.9249 22 37Z" fill="#D64242"/>
<path id="Vector 3_3" d="M14.4615 42L7.75 37C11.8923 37 14.4615 35.9331 12.9231 33.435C11.9228 31.8108 9.84615 32.0075 6 32.0075H16M6 34.1429H16" stroke="white" stroke-width="1.25"/>
</g>
<g id="Component 5">
<path id="Ellipse 3_4" d="M60 47C60 53.0751 55.0751 58 49 58C42.9249 58 38 53.0751 38 47C38 40.9249 42.9249 36 49 36C55.0751 36 60 40.9249 60 47Z" fill="#D64242"/>
<path id="Vector 3_4" d="M52.4615 52L45.75 47C49.8923 47 52.4615 45.9331 50.9231 43.435C49.9228 41.8108 47.8462 42.0075 44 42.0075H54M44 44.1429H54" stroke="white" stroke-width="1.25"/>
</g>
<g id="Component 2">
<path id="Ellipse 3_5" d="M181 20C181 26.0751 176.075 31 170 31C163.925 31 159 26.0751 159 20C159 13.9249 163.925 9 170 9C176.075 9 181 13.9249 181 20Z" fill="#D64242"/>
<path id="Vector 3_5" d="M173.462 25L166.75 20C170.892 20 173.462 18.9331 171.923 16.435C170.923 14.8108 168.846 15.0075 165 15.0075H175M165 17.1429H175" stroke="white" stroke-width="1.25"/>
</g>
<g id="Component 3">
<path id="Ellipse 3_6" d="M209 51C209 57.0751 204.075 62 198 62C191.925 62 187 57.0751 187 51C187 44.9249 191.925 40 198 40C204.075 40 209 44.9249 209 51Z" fill="#D64242"/>
<path id="Vector 3_6" d="M201.462 56L194.75 51C198.892 51 201.462 49.9331 199.923 47.435C198.923 45.8108 196.846 46.0075 193 46.0075H203M193 48.1429H203" stroke="white" stroke-width="1.25"/>
</g>
<g id="Component 1">
<path id="Ellipse 3_7" d="M176 78C176 84.0751 171.075 89 165 89C158.925 89 154 84.0751 154 78C154 71.9249 158.925 67 165 67C171.075 67 176 71.9249 176 78Z" fill="#D64242"/>
<path id="Vector 3_7" d="M168.462 83L161.75 78C165.892 78 168.462 76.9331 166.923 74.435C165.923 72.8108 163.846 73.0075 160 73.0075H170M160 75.1429H170" stroke="white" stroke-width="1.25"/>
</g>
</g>
<path id="Arrow-liab" fill-rule="evenodd" clip-rule="evenodd" d="M101.311 177.735C104.079 179.692 107.779 179.692 110.547 177.735L191.461 120.532C197.832 116.028 194.645 106 186.843 106L146.429 106L146.429 15C146.429 6.71575 139.713 5.65163e-06 131.429 6.37587e-06L80.4289 1.08344e-05C72.1446 1.15587e-05 65.4289 6.71574 65.4289 15L65.4289 106L25.0152 106C17.2126 106 14.0258 116.028 20.397 120.532L101.311 177.735Z" fill="#D64242"/>
</g>
</svg>
