<?xml version="1.0" encoding="utf-8"?>
<!-- Generator: Adobe Illustrator 23.0.5, SVG Export Plug-In . SVG Version: 6.00 Build 0)  -->
<svg version="1.1" id="Layer_1" xmlns="http://www.w3.org/2000/svg" xmlns:xlink="http://www.w3.org/1999/xlink" x="0px" y="0px"
	 viewBox="0 0 1366 768" style="enable-background:new 0 0 1366 768;" xml:space="preserve">
<g>
	<g>
		<path d="M444.44-102.62c1.93,0,1.93-3,0-3C442.51-105.62,442.51-102.62,444.44-102.62L444.44-102.62z"/>
	</g>
</g>
<g>
	<g>
		<path d="M206.94,544.72c5.62-48.71,11.24-97.42,16.85-146.13c5.59-48.46,11.18-96.93,16.77-145.39
			c3.17-27.45,6.33-54.89,9.5-82.34c0.43-3.76-2.12-9.18-4.83-11.67c-2.73-2.5-5.79-4.04-9.47-4.54c-3.52-0.47-7.45-0.02-10.52,1.96
			c-3.35,2.16-6.98,5.72-7.58,9.86c-5.45,37.38-9.86,74.9-13.91,112.46c-3.9,36.22-7.5,72.47-11.57,108.67
			c-2.3,20.42-4.75,40.82-7.48,61.18c0.2-1.46,0.39-2.92,0.59-4.39c-1.71,12.68-3.52,25.35-5.48,37.99
			c-0.67,4.34-0.85,8.81,1.66,12.71c1.98,3.06,4.52,5.33,7.89,6.75c7.07,2.98,16.98,0.65,20.6-6.75
			c10.8-22.05,21.74-44.12,35.19-64.7c3.78-5.78,7.76-11.43,11.98-16.9c-0.86,1.11-1.72,2.23-2.58,3.34
			c9.5-12.26,20.22-23.55,32.48-33.09c-1.11,0.86-2.23,1.72-3.34,2.58c6.14-4.74,12.6-8.98,19.77-12.02
			c-1.31,0.55-2.63,1.11-3.94,1.66c4.09-1.69,8.32-2.97,12.71-3.58c-1.46,0.2-2.92,0.39-4.39,0.59c3.07-0.39,6.14-0.43,9.21-0.03
			c-1.46-0.2-2.92-0.39-4.39-0.59c2.49,0.37,4.88,1.03,7.2,2c-1.31-0.55-2.63-1.11-3.94-1.66c2.08,0.92,4.01,2.05,5.83,3.42
			c-1.11-0.86-2.23-1.72-3.34-2.58c2,1.56,3.77,3.34,5.33,5.34c-0.86-1.11-1.72-2.23-2.58-3.34c1.83,2.42,3.3,5.05,4.5,7.84
			c-0.55-1.31-1.11-2.63-1.66-3.94c2.08,4.99,3.28,10.26,4,15.6c-0.2-1.46-0.39-2.92-0.59-4.39c1.45,11.14,0.87,22.41,0.64,33.6
			c-0.28,13.74-0.66,27.49-0.82,41.23c-0.08,6.24-0.02,12.5,0.58,18.72c0.7,7.23,1.71,14.57,4.05,21.48
			c1.36,4.03,3.03,8.03,5.01,11.8c1.74,3.31,3.99,6.2,6.31,9.13c3.86,4.89,8.9,9.01,14.2,12.24c13.81,8.41,31.01,9.93,45.42,2.18
			c3.57-1.92,6.52-6.01,7.58-9.86c1.09-3.95,0.6-9.21-1.66-12.71c-4.98-7.73-14.43-10.3-22.58-5.92c-0.74,0.4-1.5,0.77-2.28,1.1
			c1.31-0.55,2.63-1.11,3.94-1.66c-1.99,0.81-4.04,1.35-6.16,1.65c1.46-0.2,2.92-0.39,4.39-0.59c-2.29,0.27-4.56,0.25-6.84-0.02
			c1.46,0.2,2.92,0.39,4.39,0.59c-3-0.41-5.89-1.24-8.68-2.42c1.31,0.55,2.63,1.11,3.94,1.66c-3.02-1.32-5.83-3-8.45-4.99
			c1.11,0.86,2.23,1.72,3.34,2.58c-2.75-2.15-5.22-4.6-7.37-7.36c0.86,1.11,1.72,2.23,2.58,3.34c-2.18-2.87-3.9-6-5.34-9.31
			c0.55,1.31,1.11,2.63,1.66,3.94c-2.39-5.67-3.81-11.64-4.63-17.72c0.2,1.46,0.39,2.92,0.59,4.39
			c-1.56-12.11-0.96-24.37-0.71-36.54c0.27-13.36,0.56-26.71,0.82-40.07c0.42-22.24-2.36-47.6-21.24-62.18
			c-12-9.27-27.4-11.06-41.86-7.31c-13.4,3.48-24.75,11.12-35.47,19.55c-18.08,14.24-32.81,32.45-45.43,51.58
			c-12.26,18.59-22.43,38.45-32.26,58.39c-1.2,2.44-2.4,4.88-3.59,7.31c10.05,4.24,20.11,8.48,30.16,12.71
			c6.1-39.39,10.89-78.98,15.22-118.6c4.17-38.17,7.93-76.38,12.2-114.54c2.4-21.52,4.97-43.03,7.85-64.49
			c-0.2,1.46-0.39,2.92-0.59,4.39c1.02-7.56,2.07-15.12,3.17-22.66c-10.8-1.46-21.61-2.92-32.41-4.39
			c-5.62,48.71-11.24,97.42-16.85,146.13c-5.59,48.46-11.18,96.93-16.77,145.39c-3.17,27.45-6.33,54.89-9.5,82.34
			c-0.45,3.92,2.17,9,4.83,11.67c2.86,2.86,7.56,5.02,11.67,4.83c4.27-0.19,8.69-1.59,11.67-4.83c0.86-1.11,1.72-2.23,2.58-3.34
			C206.18,550.47,206.93,547.69,206.94,544.72L206.94,544.72z"/>
	</g>
</g>
<g>
	<g>
		<path d="M392.06,544.75c9.01-2.63,17.77-6.11,26.27-10.08c7.31-3.41,14.36-7.37,21.1-11.81c14.49-9.56,27.86-21.03,39.24-34.15
			c11.4-13.15,21.32-27.65,28.82-43.37c7.49-15.7,13.2-32.26,15.94-49.47c1.51-9.52,2.82-19.39,2.42-29.05
			c-0.15-3.66-0.62-7.35-1.31-10.94c-0.67-3.49-2.03-6.69-3.48-9.93c-2.85-6.38-7.99-11.33-13.65-15.24
			c-2.86-1.98-6.15-3.28-9.36-4.55c-2.04-0.81-4.16-1.41-6.33-1.79c-3.32-0.58-6.76-1.08-10.15-1.11
			c-3.43-0.04-6.82,0.49-10.21,0.99c-5.37,0.78-10.36,2.81-15.27,5.04c-5.06,2.3-9.44,5.55-13.78,8.99c-3.31,2.62-6.33,5.6-9,8.87
			c-3.48,4.25-6.78,8.66-9.31,13.54c-5.12,9.87-8.48,20.52-10.16,31.49c-1.71,11.18-2.42,22.35-2.48,33.65
			c-0.07,11.23,0.28,22.6,2.86,33.58c1.41,5.99,3.72,11.88,6.66,17.27c2.91,5.34,6.75,10.21,10.65,14.84
			c3.17,3.78,6.59,7.35,9.97,10.93c3.33,3.53,6.69,7.04,10.18,10.41c4.4,4.25,9.07,8.11,13.92,11.84c3.86,2.96,7.92,5.67,12.26,7.88
			c5.29,2.68,10.94,5.01,16.72,6.39c5.75,1.37,11.86,2.21,17.78,1.91c5.8-0.3,11.78-1.21,17.18-3.46c2.15-0.51,4.02-1.49,5.61-2.95
			c1.8-1.16,3.21-2.71,4.25-4.63c2.07-3.54,2.95-8.75,1.66-12.71c-1.29-3.99-3.77-7.84-7.58-9.86c-1.31-0.55-2.63-1.11-3.94-1.66
			c-2.92-0.79-5.85-0.79-8.77,0c-3.05,1.28-6.24,2.12-9.52,2.58c1.46-0.2,2.92-0.39,4.39-0.59c-3.84,0.49-7.7,0.43-11.53-0.06
			c1.46,0.2,2.92,0.39,4.39,0.59c-4.86-0.67-9.59-2.03-14.11-3.92c1.31,0.55,2.63,1.11,3.94,1.66c-5.78-2.47-11.09-5.82-16.06-9.65
			c1.11,0.86,2.23,1.72,3.34,2.58c-6.23-4.84-11.87-10.37-17.32-16.05c-5.46-5.69-11.03-11.36-15.88-17.59
			c0.86,1.11,1.72,2.23,2.58,3.34c-3.1-4.02-5.8-8.31-7.79-12.99c0.55,1.31,1.11,2.63,1.66,3.94c-2.09-5.05-3.34-10.36-4.09-15.76
			c0.2,1.46,0.39,2.92,0.59,4.39c-1.08-8.17-1.08-16.44-0.99-24.66c0.1-8.17,0.46-16.34,1.53-24.45c-0.2,1.46-0.39,2.92-0.59,4.39
			c1.15-8.51,3.12-16.91,6.46-24.85c-0.55,1.31-1.11,2.63-1.66,3.94c2.12-4.98,4.76-9.66,8.05-13.96c-0.86,1.11-1.72,2.23-2.58,3.34
			c3.02-3.89,6.48-7.4,10.36-10.43c-1.11,0.86-2.23,1.72-3.34,2.58c3.44-2.65,7.16-4.9,11.15-6.62c-1.31,0.55-2.63,1.11-3.94,1.66
			c3.48-1.47,7.11-2.5,10.86-3.01c-1.46,0.2-2.92,0.39-4.39,0.59c3.3-0.42,6.61-0.42,9.9,0.02c-1.46-0.2-2.92-0.39-4.39-0.59
			c2.69,0.39,5.31,1.09,7.83,2.11c-1.31-0.55-2.63-1.11-3.94-1.66c2.13,0.9,4.14,2.02,5.99,3.42c-1.11-0.86-2.23-1.72-3.34-2.58
			c1.52,1.18,2.87,2.5,4.06,4c-0.86-1.11-1.72-2.23-2.58-3.34c1.14,1.5,2.07,3.11,2.82,4.83c-0.55-1.31-1.11-2.63-1.66-3.94
			c1.05,2.51,1.69,5.14,2.07,7.83c-0.2-1.46-0.39-2.92-0.59-4.39c1.1,8.38,0.21,17.13-0.9,25.47c0.2-1.46,0.39-2.92,0.59-4.39
			c-1.96,14.47-5.92,28.61-11.58,42.05c0.55-1.31,1.11-2.63,1.66-3.94c-5.94,14.02-13.7,27.23-22.99,39.29
			c0.86-1.11,1.72-2.23,2.58-3.34c-9.24,11.95-19.95,22.73-31.89,32c1.11-0.86,2.23-1.72,3.34-2.58
			c-11.36,8.77-23.78,16.13-37.01,21.72c1.31-0.55,2.63-1.11,3.94-1.66c-5.52,2.32-11.17,4.33-16.92,6.01
			c-4.02,1.18-7.73,3.94-9.86,7.58c-2.07,3.54-2.95,8.75-1.66,12.71c1.29,3.99,3.77,7.84,7.58,9.86
			C383.24,545.14,387.73,546.01,392.06,544.75L392.06,544.75z"/>
	</g>
</g>
<g>
	<g>
		<path d="M524.16,540.84c27.21-8.1,49.7-26.39,67.62-47.94c18.4-22.12,33.72-46.8,48.84-71.21c16.88-27.25,32.39-55.78,41.72-86.59
			c9.63-31.79,12.44-65.41,13.41-98.47c0.79-26.69-0.84-59.73-26.48-75.19c-15.36-9.26-34.08-7.4-49.25,1.17
			c-13.74,7.77-24.46,20.29-31.98,33.99c-15.63,28.47-20.66,61.15-22.18,93.2c-1.62,34.11,1.19,68.27,6.75,101.93
			c2.62,15.89,5.89,31.7,9.94,47.3c4,15.43,9.15,30.62,16.24,44.93c13.62,27.45,37.53,51.55,67.92,59.27
			c7.39,1.88,15.23,2.84,22.87,2.49c4.35-0.2,8.54-1.7,11.67-4.83c2.86-2.86,5.02-7.56,4.83-11.67c-0.19-4.27-1.59-8.69-4.83-11.67
			c-3.14-2.89-7.27-5.03-11.67-4.83c-3.67,0.17-7.33,0.01-10.97-0.45c1.46,0.2,2.92,0.39,4.39,0.59c-5.99-0.81-11.8-2.45-17.37-4.76
			c1.31,0.55,2.63,1.11,3.94,1.66c-6.67-2.82-12.88-6.54-18.61-10.94c1.11,0.86,2.23,1.72,3.34,2.58
			c-6.34-4.93-12.01-10.64-16.93-16.98c0.86,1.11,1.72,2.23,2.58,3.34c-6.84-8.9-12.24-18.8-16.61-29.12
			c0.55,1.31,1.11,2.63,1.66,3.94c-4.68-11.14-8.19-22.72-11.15-34.42c-3.22-12.69-5.94-25.52-8.23-38.42
			c-1.33-7.45-2.5-14.92-3.51-22.42c0.2,1.46,0.39,2.92,0.59,4.39c-3.85-28.83-5.29-58-3.54-87.05c0.45-7.43,1.13-14.85,2.11-22.23
			c-0.2,1.46-0.39,2.92-0.59,4.39c2.14-15.71,5.75-31.25,11.92-45.89c-0.55,1.31-1.11,2.63-1.66,3.94
			c3.48-8.15,7.65-16.17,13.08-23.21c-0.86,1.11-1.72,2.23-2.58,3.34c3.53-4.51,7.55-8.59,12.07-12.11
			c-1.11,0.86-2.23,1.72-3.34,2.58c3.56-2.72,7.37-5.04,11.5-6.79c-1.31,0.55-2.63,1.11-3.94,1.66c3-1.22,6.1-2.11,9.31-2.54
			c-1.46,0.2-2.92,0.39-4.39,0.59c2.5-0.3,4.98-0.31,7.47-0.01c-1.46-0.2-2.92-0.39-4.39-0.59c2.39,0.34,4.68,0.95,6.92,1.85
			c-1.31-0.55-2.63-1.11-3.94-1.66c2.37,1,4.58,2.27,6.63,3.83c-1.11-0.86-2.23-1.72-3.34-2.58c2.05,1.61,3.86,3.46,5.46,5.51
			c-0.86-1.11-1.72-2.23-2.58-3.34c2.05,2.71,3.69,5.67,5.01,8.8c-0.55-1.31-1.11-2.63-1.66-3.94c2.22,5.37,3.52,11.06,4.32,16.8
			c-0.2-1.46-0.39-2.92-0.59-4.39c1.15,8.62,1.09,17.27,0.86,25.95c-0.31,11.42-0.84,22.84-1.79,34.23
			c-0.54,6.46-1.23,12.92-2.09,19.35c0.2-1.46,0.39-2.92,0.59-4.39c-3.12,22.98-8.8,45.35-17.8,66.74c0.55-1.31,1.11-2.63,1.66-3.94
			c-7.45,17.6-16.66,34.37-26.53,50.72c-9.37,15.52-19.15,30.83-29.21,45.91c-5.09,7.63-10.35,15.14-15.95,22.4
			c0.86-1.11,1.72-2.23,2.58-3.34c-9.46,12.22-19.92,23.75-32.17,33.23c1.11-0.86,2.23-1.72,3.34-2.58
			c-7.39,5.67-15.37,10.5-23.95,14.15c1.31-0.55,2.63-1.11,3.94-1.66c-3.28,1.37-6.63,2.57-10.04,3.59
			c-4.03,1.2-7.72,3.93-9.86,7.58c-2.07,3.54-2.95,8.75-1.66,12.71c1.29,3.99,3.77,7.84,7.58,9.86
			C515.33,541.23,519.84,542.13,524.16,540.84L524.16,540.84z"/>
	</g>
</g>
<g>
	<g>
		<path d="M690.8,546.32c8.51-2.86,16.85-6.47,24.72-10.78c7.91-4.34,15.19-9.55,22.29-15.09c13.37-10.42,24.63-22.91,34.8-36.42
			c21.72-28.83,35.43-63.03,46.99-96.96c12.4-36.39,22.22-73.8,25.13-112.25c0.7-9.24,0.95-18.53,0.67-27.8
			c-0.3-9.89-1.23-20.01-3.87-29.56c-5.41-19.57-18.9-37.02-38.76-43.29c-19.54-6.17-41.38,2.8-54.08,18.14
			c-3.43,4.14-6.59,8.49-9.14,13.22c-2.59,4.8-4.7,9.88-6.62,14.98c-3.02,8.01-5.29,16.31-7.5,24.58
			c-9.56,35.72-15.52,72.78-16.02,109.8c-0.5,36.43,4.43,73.55,16.67,107.95c3.14,8.83,6.74,17.58,11.08,25.89
			c4.36,8.37,9.71,16.14,15.79,23.35c5.95,7.06,13.11,13.16,20.88,18.15c3.43,2.2,7.04,4.08,10.78,5.68
			c4.71,2.01,9.39,3.89,14.4,5.01c10.3,2.29,20.47,2.41,30.8,0.3c4.18-0.85,8.13-2.3,12.05-3.95c3.91-1.65,7.69-3.44,11.29-5.71
			c14.86-9.4,26.32-22.73,36.37-36.97c10.11-14.33,18.95-29.69,27.12-45.19c7.44-14.1,13.61-28.82,21.15-42.86
			c3.27-6.1,6.87-12.03,11.09-17.52c-0.86,1.11-1.72,2.23-2.58,3.34c3.6-4.65,7.64-8.93,12.29-12.55c-1.11,0.86-2.23,1.72-3.34,2.58
			c3.53-2.71,7.35-4.97,11.44-6.72c-1.31,0.55-2.63,1.11-3.94,1.66c0.45-0.19,0.9-0.37,1.35-0.55c4.13-1.62,7.54-3.62,9.86-7.58
			c2.07-3.54,2.95-8.75,1.66-12.71c-1.29-3.99-3.77-7.84-7.58-9.86c-3.69-1.95-8.66-3.26-12.71-1.66
			c-5.52,2.17-10.82,4.57-15.61,8.08c-4.79,3.51-9.3,7.26-13.24,11.71c-7.15,8.07-13,17.16-18.01,26.68
			c-4.79,9.1-8.92,18.51-13.43,27.74c-5.5,11.25-11.42,22.28-17.75,33.08c-6.45,11-13.18,21.94-20.97,32.06
			c0.86-1.11,1.72-2.23,2.58-3.34c-5.86,7.57-12.37,14.68-19.93,20.58c1.11-0.86,2.23-1.72,3.34-2.58
			c-4.67,3.59-9.69,6.67-15.12,8.97c1.31-0.55,2.63-1.11,3.94-1.66c-4.38,1.81-8.92,3.07-13.62,3.72c1.46-0.2,2.92-0.39,4.39-0.59
			c-4.54,0.58-9.1,0.55-13.65-0.03c1.46,0.2,2.92,0.39,4.39,0.59c-5.27-0.73-10.38-2.17-15.3-4.21c1.31,0.55,2.63,1.11,3.94,1.66
			c-5.81-2.46-11.24-5.69-16.23-9.54c1.11,0.86,2.23,1.72,3.34,2.58c-5.49-4.3-10.32-9.32-14.6-14.83c0.86,1.11,1.72,2.23,2.58,3.34
			c-6.66-8.67-11.82-18.33-16.07-28.38c0.55,1.31,1.11,2.63,1.66,3.94c-8.78-20.97-14.25-43.36-17.31-65.85
			c0.2,1.46,0.39,2.92,0.59,4.39c-3.28-24.41-3.59-49.16-1.58-73.69c0.58-7.06,1.35-14.1,2.29-21.11c-0.2,1.46-0.39,2.92-0.59,4.39
			c3.17-23.42,8.24-46.56,14.82-69.26c1.79-6.18,3.74-12.31,6.24-18.25c-0.55,1.31-1.11,2.63-1.66,3.94
			c2.33-5.43,5.13-10.62,8.7-15.34c-0.86,1.11-1.72,2.23-2.58,3.34c2.53-3.27,5.43-6.21,8.69-8.75c-1.11,0.86-2.23,1.72-3.34,2.58
			c2.85-2.17,5.9-3.99,9.19-5.4c-1.31,0.55-2.63,1.11-3.94,1.66c2.77-1.14,5.63-1.94,8.6-2.35c-1.46,0.2-2.92,0.39-4.39,0.59
			c2.61-0.31,5.21-0.31,7.81,0.03c-1.46-0.2-2.92-0.39-4.39-0.59c2.66,0.4,5.23,1.12,7.71,2.16c-1.31-0.55-2.63-1.11-3.94-1.66
			c2.79,1.21,5.39,2.76,7.81,4.6c-1.11-0.86-2.23-1.72-3.34-2.58c2.98,2.32,5.61,5,7.92,7.99c-0.86-1.11-1.72-2.23-2.58-3.34
			c2.51,3.32,4.52,6.92,6.14,10.76c-0.55-1.31-1.11-2.63-1.66-3.94c2.45,5.97,3.9,12.25,4.77,18.63c-0.2-1.46-0.39-2.92-0.59-4.39
			c1.24,9.63,1.33,19.41,1.04,29.1c-0.3,10.05-1.17,20.07-2.5,30.03c0.2-1.46,0.39-2.92,0.59-4.39
			c-4.64,34.43-14.59,67.98-26.25,100.62c-3.11,8.7-6.41,17.32-9.99,25.84c0.55-1.31,1.11-2.63,1.66-3.94
			c-8.78,20.74-19.35,40.84-33.11,58.75c0.86-1.11,1.72-2.23,2.58-3.34c-9.11,11.79-19.54,22.55-31.33,31.68
			c1.11-0.86,2.23-1.72,3.34-2.58c-9.44,7.26-19.69,13.41-30.68,18.05c1.31-0.55,2.63-1.11,3.94-1.66
			c-2.84,1.18-5.71,2.26-8.62,3.24c-4.08,1.37-7.65,3.8-9.86,7.58c-2.07,3.54-2.95,8.75-1.66,12.71c1.29,3.99,3.77,7.84,7.58,9.86
			C681.89,546.66,686.59,547.73,690.8,546.32L690.8,546.32z"/>
	</g>
</g>
<g>
	<g>
		<path d="M947.55,345.41c-4.27,2.75-8.37,5.92-12.02,9.45c-3.64,3.52-6.78,7.55-9.76,11.63c-5.33,7.32-9.07,15.6-12.35,24
			c-6.17,15.81-9.27,32.8-11.31,49.59c-0.93,7.67-1.4,15.42-1.13,23.15c0.31,8.85,1.4,17.88,3.79,26.42
			c5.01,17.92,16.09,34.27,32.4,43.69c4.31,2.49,9.01,4.47,13.74,6.02c4.81,1.57,9.73,2.28,14.73,2.92
			c8.8,1.13,17.88,0.28,26.52-1.62c3.71-0.82,7.34-1.95,10.86-3.39c4.73-1.94,9.38-3.95,13.7-6.69c4.39-2.77,8.55-6.02,12.4-9.5
			c2.96-2.67,5.69-5.58,8.19-8.69c5.88-7.31,10.92-14.97,14.62-23.61c3.73-8.71,6.74-17.49,8.33-26.85
			c1.61-9.51,2.47-19.13,1.91-28.77c-0.57-9.72-2.08-19.56-5.01-28.86c-2.9-9.21-6.93-18.33-12.38-26.33
			c-3.05-4.48-6.43-8.85-10.18-12.77c-3.65-3.82-7.79-7.08-12.02-10.22c-3.21-2.38-6.63-4.47-10.2-6.27
			c-4.7-2.36-9.63-4.42-14.66-5.95c-5.09-1.55-10.32-2.32-15.6-2.93c-3.84-0.44-7.72-0.51-11.57-0.17
			c-5.19,0.45-10.42,1.21-15.42,2.74c-3.86,1.18-7.92,3.92-9.86,7.58c-0.55,1.31-1.11,2.63-1.66,3.94
			c-0.69,2.19-0.79,4.39-0.29,6.58c0,1.49,0.38,2.88,1.13,4.16c0.67,2.05,1.8,3.82,3.41,5.31c3.21,2.95,7.21,4.87,11.67,4.83
			c13.46-0.11,26.9-1.5,40.16-3.76c11.82-2.01,23.47-4.95,34.84-8.76c23.99-8.05,46.97-19.52,67.42-34.46
			c11.97-8.75,23.29-18.32,33.51-29.06c2.96-3.11,4.83-7.33,4.83-11.67c0-4.05-1.8-8.88-4.83-11.67c-3.14-2.89-7.27-5.03-11.67-4.83
			c-4.31,0.19-8.61,1.63-11.67,4.83c-7.8,8.2-16.23,15.78-25.17,22.71c1.11-0.86,2.23-1.72,3.34-2.58
			c-12.37,9.55-25.69,17.84-39.72,24.73c-3.99,1.96-8.04,3.8-12.13,5.53c1.31-0.55,2.63-1.11,3.94-1.66
			c-14.77,6.22-30.17,10.96-45.9,14.04c-4.49,0.88-9.01,1.62-13.55,2.23c1.46-0.2,2.92-0.39,4.39-0.59
			c-9.22,1.22-18.5,1.88-27.79,1.96c1.46,10.8,2.92,21.61,4.39,32.41c2.76-0.84,5.57-1.46,8.43-1.86c-1.46,0.2-2.92,0.39-4.39,0.59
			c5.08-0.67,10.21-0.64,15.29,0.02c-1.46-0.2-2.92-0.39-4.39-0.59c5.74,0.78,11.34,2.35,16.68,4.58c-1.31-0.55-2.63-1.11-3.94-1.66
			c5.49,2.33,10.66,5.35,15.4,8.98c-1.11-0.86-2.23-1.72-3.34-2.58c4.7,3.64,8.87,7.85,12.51,12.53c-0.86-1.11-1.72-2.23-2.58-3.34
			c4.25,5.52,7.72,11.59,10.44,18c-0.55-1.31-1.11-2.63-1.66-3.94c3.29,7.84,5.46,16.1,6.62,24.52c-0.2-1.46-0.39-2.92-0.59-4.39
			c1.29,9.63,1.28,19.4-0.01,29.03c0.2-1.46,0.39-2.92,0.59-4.39c-1.23,8.92-3.55,17.67-7.04,25.98c0.55-1.31,1.11-2.63,1.66-3.94
			c-2.94,6.92-6.66,13.47-11.25,19.43c0.86-1.11,1.72-2.23,2.58-3.34c-3.89,5.01-8.35,9.53-13.37,13.42
			c1.11-0.86,2.23-1.72,3.34-2.58c-4.34,3.32-9.05,6.07-14.08,8.2c1.31-0.55,2.63-1.11,3.94-1.66c-5.35,2.23-10.95,3.75-16.69,4.55
			c1.46-0.2,2.92-0.39,4.39-0.59c-5.69,0.76-11.46,0.8-17.15,0.04c1.46,0.2,2.92,0.39,4.39,0.59c-4.91-0.69-9.71-1.96-14.28-3.89
			c1.31,0.55,2.63,1.11,3.94,1.66c-3.9-1.68-7.58-3.8-10.95-6.39c1.11,0.86,2.23,1.72,3.34,2.58c-3.45-2.69-6.52-5.82-9.2-9.27
			c0.86,1.11,1.72,2.23,2.58,3.34c-2.94-3.85-5.35-8.06-7.25-12.52c0.55,1.31,1.11,2.63,1.66,3.94c-2.66-6.3-4.3-12.96-5.23-19.72
			c0.2,1.46,0.39,2.92,0.59,4.39c-1.62-12.09-1.05-24.37,0.57-36.43c-0.2,1.46-0.39,2.92-0.59,4.39
			c2.09-15.41,5.48-31.02,11.51-45.4c-0.55,1.31-1.11,2.63-1.66,3.94c2.81-6.64,6.26-13,10.64-18.73c-0.86,1.11-1.72,2.23-2.58,3.34
			c3.17-4.1,6.79-7.81,10.88-10.98c-1.11,0.86-2.23,1.72-3.34,2.58c1.26-0.96,2.56-1.88,3.9-2.74c3.59-2.31,6.43-5.69,7.58-9.86
			c0.69-2.19,0.79-4.39,0.29-6.58c-0.1-2.2-0.75-4.24-1.96-6.13c-2.27-3.52-5.65-6.62-9.86-7.58
			C956.04,342.78,951.31,342.99,947.55,345.41L947.55,345.41z"/>
	</g>
</g>
<g>
	<g>
		<path d="M1087.93,522.02c0,0.51,0,1.02,0,1.53c-0.09,2.27,0.39,4.39,1.42,6.36c0.67,2.05,1.8,3.82,3.41,5.31
			c1.49,1.61,3.26,2.75,5.31,3.41c1.97,1.03,4.09,1.51,6.36,1.42c1.46-0.2,2.92-0.39,4.39-0.59c2.8-0.78,5.22-2.2,7.28-4.24
			c0.86-1.11,1.72-2.23,2.58-3.34c1.49-2.57,2.24-5.35,2.25-8.33c0-0.51,0-1.02,0-1.53c0.09-2.27-0.39-4.39-1.42-6.36
			c-0.67-2.05-1.8-3.82-3.41-5.31c-1.49-1.61-3.26-2.75-5.31-3.41c-1.97-1.03-4.09-1.51-6.36-1.42c-1.46,0.2-2.92,0.39-4.39,0.59
			c-2.8,0.78-5.22,2.2-7.28,4.24c-0.86,1.11-1.72,2.23-2.58,3.34C1088.69,516.27,1087.93,519.04,1087.93,522.02L1087.93,522.02z"/>
	</g>
</g>
</svg>
